<svg xmlns="http://www.w3.org/2000/svg" viewBox="0 0 640 420" role="img" aria-label="Food aid campaign">
  <defs>
    <linearGradient id="f-sky" x1="0" y1="0" x2="0" y2="1">
      <stop offset="0" stop-color="#f59e0b"/><stop offset="1" stop-color="#d97706"/>
    </linearGradient>
  </defs>
  <rect width="640" height="420" fill="url(#f-sky)"/>
  <circle cx="118" cy="84" r="122" fill="#fff" opacity=".08"/>
  <circle cx="556" cy="352" r="140" fill="#000" opacity=".06"/>
  <!-- crate / food parcel -->
  <path d="M186 196h268l-22 148a26 26 0 0 1-26 22H234a26 26 0 0 1-26-22z" fill="#fff" opacity=".94"/>
  <rect x="170" y="164" width="300" height="44" rx="14" fill="#fff"/>
  <rect x="300" y="164" width="40" height="202" fill="#d97706" opacity=".16"/>
  <!-- bread loaf -->
  <ellipse cx="252" cy="252" rx="44" ry="30" fill="#f59e0b" opacity=".55"/>
  <path d="M222 246c8-12 52-12 60 0" fill="none" stroke="#b45309" stroke-width="5" stroke-linecap="round" opacity=".5"/>
  <!-- apple -->
  <circle cx="392" cy="256" r="30" fill="#e11d48" opacity=".55"/>
  <path d="M392 226v-14c0-6 6-10 12-10" fill="none" stroke="#166534" stroke-width="6" stroke-linecap="round" opacity=".65"/>
  <!-- wheat sprigs -->
  <path d="M470 150c0 26 12 44 30 52M500 202c18-8 30-26 30-52" fill="none" stroke="#fff" stroke-width="6"
        stroke-linecap="round" opacity=".55"/>
</svg>
